<svg xmlns="http://www.w3.org/2000/svg" viewBox="0 0 800 800">
<defs>
<radialGradient id="bgdune2" cx="42%" cy="32%" r="90%">
<stop offset="0%" stop-color="#f3e3d7"/><stop offset="100%" stop-color="#ecd4c1"/>
</radialGradient>
<filter id="gdune2"><feTurbulence type="fractalNoise" baseFrequency="0.9" numOctaves="2" result="n"/><feColorMatrix in="n" type="matrix" values="0 0 0 0 0  0 0 0 0 0  0 0 0 0 0  0 0 0 0.04 0"/><feComposite operator="over" in2="SourceGraphic"/></filter>
</defs>
<rect width="800" height="800" fill="url(#bgdune2)" filter="url(#gdune2)"/>
<ellipse cx="400" cy="600" rx="215" ry="34" fill="#ddb394" opacity="0.35"/>
<g transform="rotate(5 400 400)">
    <path d="M240 540 V420 q0 -20 20 -20 h80 q20 0 20 20 v120 Z" fill="#f9f0e8"/>
    <path d="M380 540 V340 q0 -20 20 -20 h80 q20 0 20 20 v200 Z" fill="#ddb394"/>
    <path d="M520 540 V450 q0 -20 20 -20 h60 q20 0 20 20 v90 Z" fill="#c98d63"/>
    <rect x="230" y="540" width="400" height="16" rx="8" fill="#c98d63" opacity="0.6"/>
    <rect x="398" y="300" width="10" height="60" rx="5" fill="#f9f0e8"/>
    <rect x="420" y="285" width="10" height="75" rx="5" fill="#f9f0e8" opacity="0.8"/></g>
</svg>