<svg xmlns="http://www.w3.org/2000/svg" viewBox="0 0 800 800">
<defs>
<radialGradient id="bgvisage0" cx="42%" cy="32%" r="90%">
<stop offset="0%" stop-color="#f7e9e4"/><stop offset="100%" stop-color="#f1dcd4"/>
</radialGradient>
<filter id="gvisage0"><feTurbulence type="fractalNoise" baseFrequency="0.9" numOctaves="2" result="n"/><feColorMatrix in="n" type="matrix" values="0 0 0 0 0  0 0 0 0 0  0 0 0 0 0  0 0 0 0.04 0"/><feComposite operator="over" in2="SourceGraphic"/></filter>
</defs>
<rect width="800" height="800" fill="url(#bgvisage0)" filter="url(#gvisage0)"/>
<ellipse cx="400" cy="600" rx="215" ry="34" fill="#e6c8bc" opacity="0.35"/>
<g transform="rotate(0 400 400)">
    <path d="M300 250 h200 q14 0 13 15 l-15 240 q-12 75 -98 75 t-98 -75 l-15 -240 q-1 -15 13 -15 Z" fill="#fbf3f0"/>
    <path d="M340 390 q15 14 30 0 M430 390 q15 14 30 0" stroke="#d4a894" stroke-width="8" fill="none" stroke-linecap="round"/>
    <path d="M385 455 q15 12 30 0" stroke="#d4a894" stroke-width="6" fill="none" stroke-linecap="round" opacity="0.7"/>
    <circle cx="330" cy="430" r="12" fill="#e6c8bc" opacity="0.8"/>
    <circle cx="470" cy="430" r="12" fill="#e6c8bc" opacity="0.8"/>
    <path d="M330 250 q10 -60 45 -75 M400 245 q0 -55 25 -80 M465 252 q5 -50 -20 -78" stroke="#e6c8bc" stroke-width="10" fill="none" stroke-linecap="round"/></g>
</svg>