<svg xmlns="http://www.w3.org/2000/svg" viewBox="0 0 800 800">
<defs>
<radialGradient id="bgvaseondule0" cx="42%" cy="32%" r="90%">
<stop offset="0%" stop-color="#e9eee4"/><stop offset="100%" stop-color="#dbe4d2"/>
</radialGradient>
<filter id="gvaseondule0"><feTurbulence type="fractalNoise" baseFrequency="0.9" numOctaves="2" result="n"/><feColorMatrix in="n" type="matrix" values="0 0 0 0 0  0 0 0 0 0  0 0 0 0 0  0 0 0 0.04 0"/><feComposite operator="over" in2="SourceGraphic"/></filter>
</defs>
<rect width="800" height="800" fill="url(#bgvaseondule0)" filter="url(#gvaseondule0)"/>
<ellipse cx="400" cy="600" rx="215" ry="34" fill="#c9d6bc" opacity="0.35"/>
<g transform="rotate(0 400 400)">
    <path d="M320 220 q80 -30 160 0 q-25 60 -12 105 q30 90 12 175 q-8 55 -50 60 h-60 q-42 -5 -50 -60 q-18 -85 12 -175 q13 -45 -12 -105 Z" fill="#f2f5ee"/>
    <path d="M315 290 q85 -26 170 0" stroke="#c9d6bc" stroke-width="7" fill="none" opacity="0.5"/><path d="M315 335 q85 26 170 0" stroke="#c9d6bc" stroke-width="7" fill="none" opacity="0.5"/><path d="M315 380 q85 -26 170 0" stroke="#c9d6bc" stroke-width="7" fill="none" opacity="0.5"/><path d="M315 425 q85 26 170 0" stroke="#c9d6bc" stroke-width="7" fill="none" opacity="0.5"/><path d="M315 470 q85 -26 170 0" stroke="#c9d6bc" stroke-width="7" fill="none" opacity="0.5"/><path d="M315 515 q85 26 170 0" stroke="#c9d6bc" stroke-width="7" fill="none" opacity="0.5"/>
    <path d="M355 250 q10 140 0 260" stroke="#a8bb97" stroke-width="5" fill="none" opacity="0.25"/></g>
</svg>